<svg width="40" height="24" viewBox="0 0 40 24" fill="none" xmlns="http://www.w3.org/2000/svg">
<path fill-rule="evenodd" clip-rule="evenodd" d="M11.2735 12.0002C11.2735 13.6659 12.6869 15.021 14.4242 15.021H39.1982V8.979H14.4242C12.6869 8.979 11.2735 10.3345 11.2735 12.0002Z" fill="#070b1f"/>
<path fill-rule="evenodd" clip-rule="evenodd" d="M14.4243 17.0779C11.5039 17.0779 9.12791 14.8002 9.12791 12.0002C9.12791 9.19991 11.5039 6.9222 14.4243 6.9222H39.1982V0.444668C38.3908 1.21592 37.5908 1.7978 36.9628 1.93117C33.9846 2.50265 32.5948 0.789353 29.6165 2.50265C27.4328 3.83496 26.4397 5.92895 23.2635 4.59608C20.0866 3.26377 20.285 -0.353031 15.7185 0.0279512C12.3432 0.408371 9.87129 3.10001 5.9003 1.95763C5.67228 1.88475 5.40844 1.89093 5.11673 1.96044C2.0103 4.19287 0 7.75114 0 11.7602C0 18.5199 5.71541 24 12.7659 24H39.1982V17.0779H14.4243Z" fill="#070b1f"/>
</svg>
